<mxfile host="app.diagrams.net" modified="2023-11-16T14:27:14.265Z" agent="Mozilla/5.0 (Windows NT 10.0; Win64; x64) AppleWebKit/537.36 (KHTML, like Gecko) Chrome/118.0.0.0 Safari/537.36 OPR/104.0.0.0" etag="5CGY9chN3I3EWn3BJ9VO" version="22.1.2" type="device">
  <diagram name="Page-1" id="2YBvvXClWsGukQMizWep">
    <mxGraphModel dx="1990" dy="1094" grid="1" gridSize="10" guides="1" tooltips="1" connect="1" arrows="1" fold="1" page="1" pageScale="1" pageWidth="850" pageHeight="1100" math="0" shadow="0">
      <root>
        <mxCell id="0" />
        <mxCell id="1" parent="0" />
        <mxCell id="Wwknnj7imQhr6KvqIxDG-1" value="" style="shape=umlLifeline;perimeter=lifelinePerimeter;whiteSpace=wrap;html=1;container=1;dropTarget=0;collapsible=0;recursiveResize=0;outlineConnect=0;portConstraint=eastwest;newEdgeStyle={&quot;curved&quot;:0,&quot;rounded&quot;:0};participant=umlActor;" vertex="1" parent="1">
          <mxGeometry x="70" y="60" width="20" height="510" as="geometry" />
        </mxCell>
        <mxCell id="Wwknnj7imQhr6KvqIxDG-5" value="" style="html=1;points=[[0,0,0,0,5],[0,0.5,0,0,0],[0,1,0,0,-5],[1,0,0,0,5],[1,0.5,0,0,0],[1,1,0,0,-5]];perimeter=orthogonalPerimeter;outlineConnect=0;targetShapes=umlLifeline;portConstraint=eastwest;newEdgeStyle={&quot;curved&quot;:0,&quot;rounded&quot;:0};" vertex="1" parent="Wwknnj7imQhr6KvqIxDG-1">
          <mxGeometry x="5" y="60" width="10" height="390" as="geometry" />
        </mxCell>
        <mxCell id="Wwknnj7imQhr6KvqIxDG-2" value="CodeKataBattle" style="shape=umlLifeline;perimeter=lifelinePerimeter;whiteSpace=wrap;html=1;container=1;dropTarget=0;collapsible=0;recursiveResize=0;outlineConnect=0;portConstraint=eastwest;newEdgeStyle={&quot;curved&quot;:0,&quot;rounded&quot;:0};" vertex="1" parent="1">
          <mxGeometry x="325" y="60" width="100" height="510" as="geometry" />
        </mxCell>
        <mxCell id="Wwknnj7imQhr6KvqIxDG-3" value="" style="html=1;points=[[0,0,0,0,5],[0,1,0,0,-5],[1,0,0,0,5],[1,1,0,0,-5]];perimeter=orthogonalPerimeter;outlineConnect=0;targetShapes=umlLifeline;portConstraint=eastwest;newEdgeStyle={&quot;curved&quot;:0,&quot;rounded&quot;:0};" vertex="1" parent="Wwknnj7imQhr6KvqIxDG-2">
          <mxGeometry x="45" y="60" width="10" height="80" as="geometry" />
        </mxCell>
        <mxCell id="Wwknnj7imQhr6KvqIxDG-6" style="edgeStyle=orthogonalEdgeStyle;rounded=0;orthogonalLoop=1;jettySize=auto;html=1;curved=0;exitX=1;exitY=0;exitDx=0;exitDy=5;exitPerimeter=0;entryX=0;entryY=0;entryDx=0;entryDy=5;entryPerimeter=0;" edge="1" parent="1" source="Wwknnj7imQhr6KvqIxDG-5" target="Wwknnj7imQhr6KvqIxDG-3">
          <mxGeometry relative="1" as="geometry" />
        </mxCell>
        <mxCell id="Wwknnj7imQhr6KvqIxDG-7" value="1: open_application" style="edgeLabel;html=1;align=center;verticalAlign=middle;resizable=0;points=[];" vertex="1" connectable="0" parent="Wwknnj7imQhr6KvqIxDG-6">
          <mxGeometry x="-0.1916" relative="1" as="geometry">
            <mxPoint x="20" y="-5" as="offset" />
          </mxGeometry>
        </mxCell>
        <mxCell id="Wwknnj7imQhr6KvqIxDG-8" style="edgeStyle=orthogonalEdgeStyle;rounded=0;orthogonalLoop=1;jettySize=auto;html=1;curved=0;exitX=0;exitY=1;exitDx=0;exitDy=-5;exitPerimeter=0;dashed=1;endArrow=open;endFill=0;entryX=0.755;entryY=0.263;entryDx=0;entryDy=0;entryPerimeter=0;" edge="1" parent="1" source="Wwknnj7imQhr6KvqIxDG-3" target="Wwknnj7imQhr6KvqIxDG-1">
          <mxGeometry relative="1" as="geometry">
            <mxPoint x="100" y="195" as="targetPoint" />
          </mxGeometry>
        </mxCell>
        <mxCell id="Wwknnj7imQhr6KvqIxDG-9" value="2: show(registrationForm)" style="edgeLabel;html=1;align=center;verticalAlign=middle;resizable=0;points=[];" vertex="1" connectable="0" parent="Wwknnj7imQhr6KvqIxDG-8">
          <mxGeometry x="0.1551" y="1" relative="1" as="geometry">
            <mxPoint x="15" y="-6" as="offset" />
          </mxGeometry>
        </mxCell>
        <mxCell id="Wwknnj7imQhr6KvqIxDG-10" value="System" style="shape=umlLifeline;perimeter=lifelinePerimeter;whiteSpace=wrap;html=1;container=1;dropTarget=0;collapsible=0;recursiveResize=0;outlineConnect=0;portConstraint=eastwest;newEdgeStyle={&quot;curved&quot;:0,&quot;rounded&quot;:0};" vertex="1" parent="1">
          <mxGeometry x="570" y="60" width="100" height="510" as="geometry" />
        </mxCell>
        <mxCell id="Wwknnj7imQhr6KvqIxDG-12" value="" style="html=1;points=[[0,0,0,0,5],[0,1,0,0,-5],[1,0,0,0,5],[1,1,0,0,-5]];perimeter=orthogonalPerimeter;outlineConnect=0;targetShapes=umlLifeline;portConstraint=eastwest;newEdgeStyle={&quot;curved&quot;:0,&quot;rounded&quot;:0};" vertex="1" parent="Wwknnj7imQhr6KvqIxDG-10">
          <mxGeometry x="45" y="160" width="10" height="320" as="geometry" />
        </mxCell>
        <mxCell id="Wwknnj7imQhr6KvqIxDG-26" value="" style="html=1;points=[[0,0,0,0,5],[0,1,0,0,-5],[1,0,0,0,5],[1,1,0,0,-5]];perimeter=orthogonalPerimeter;outlineConnect=0;targetShapes=umlLifeline;portConstraint=eastwest;newEdgeStyle={&quot;curved&quot;:0,&quot;rounded&quot;:0};" vertex="1" parent="Wwknnj7imQhr6KvqIxDG-10">
          <mxGeometry x="55" y="220" width="10" height="30" as="geometry" />
        </mxCell>
        <mxCell id="Wwknnj7imQhr6KvqIxDG-27" value="5: checkInfo(email, password, profileType)" style="html=1;align=left;spacingLeft=2;endArrow=block;rounded=0;edgeStyle=orthogonalEdgeStyle;curved=0;rounded=0;exitX=0.546;exitY=0.365;exitDx=0;exitDy=0;exitPerimeter=0;entryX=1;entryY=0;entryDx=0;entryDy=5;entryPerimeter=0;" edge="1" target="Wwknnj7imQhr6KvqIxDG-26" parent="Wwknnj7imQhr6KvqIxDG-10" source="Wwknnj7imQhr6KvqIxDG-10">
          <mxGeometry x="-0.2096" relative="1" as="geometry">
            <mxPoint x="60" y="170" as="sourcePoint" />
            <Array as="points">
              <mxPoint x="90" y="186" />
              <mxPoint x="90" y="225" />
            </Array>
            <mxPoint as="offset" />
          </mxGeometry>
        </mxCell>
        <mxCell id="Wwknnj7imQhr6KvqIxDG-14" style="edgeStyle=orthogonalEdgeStyle;rounded=0;orthogonalLoop=1;jettySize=auto;html=1;curved=0;entryX=0.707;entryY=0.325;entryDx=0;entryDy=0;entryPerimeter=0;startArrow=classic;startFill=1;endArrow=none;endFill=0;exitX=0;exitY=0;exitDx=0;exitDy=5;exitPerimeter=0;" edge="1" parent="1" source="Wwknnj7imQhr6KvqIxDG-19" target="Wwknnj7imQhr6KvqIxDG-1">
          <mxGeometry relative="1" as="geometry">
            <mxPoint x="360" y="225" as="sourcePoint" />
          </mxGeometry>
        </mxCell>
        <mxCell id="Wwknnj7imQhr6KvqIxDG-15" value="3: sendInfo(email, password, profileType)" style="edgeLabel;html=1;align=center;verticalAlign=middle;resizable=0;points=[];" vertex="1" connectable="0" parent="Wwknnj7imQhr6KvqIxDG-14">
          <mxGeometry x="0.0323" relative="1" as="geometry">
            <mxPoint y="-6" as="offset" />
          </mxGeometry>
        </mxCell>
        <mxCell id="Wwknnj7imQhr6KvqIxDG-17" value="&lt;b&gt;alt&lt;/b&gt;&amp;nbsp;validRegistrationInfo == true" style="shape=umlFrame;whiteSpace=wrap;html=1;pointerEvents=0;width=200;height=30;" vertex="1" parent="1">
          <mxGeometry x="60" y="320" width="600" height="250" as="geometry" />
        </mxCell>
        <mxCell id="Wwknnj7imQhr6KvqIxDG-29" style="edgeStyle=orthogonalEdgeStyle;rounded=0;orthogonalLoop=1;jettySize=auto;html=1;curved=0;entryX=1.2;entryY=0.71;entryDx=0;entryDy=0;entryPerimeter=0;exitX=-0.062;exitY=0.551;exitDx=0;exitDy=0;exitPerimeter=0;" edge="1" parent="1" source="Wwknnj7imQhr6KvqIxDG-19" target="Wwknnj7imQhr6KvqIxDG-5">
          <mxGeometry relative="1" as="geometry" />
        </mxCell>
        <mxCell id="Wwknnj7imQhr6KvqIxDG-33" value="6: show(registrationConfirmation)" style="edgeLabel;html=1;align=center;verticalAlign=middle;resizable=0;points=[];" vertex="1" connectable="0" parent="Wwknnj7imQhr6KvqIxDG-29">
          <mxGeometry x="0.1431" y="-2" relative="1" as="geometry">
            <mxPoint as="offset" />
          </mxGeometry>
        </mxCell>
        <mxCell id="Wwknnj7imQhr6KvqIxDG-19" value="" style="html=1;points=[[0,0,0,0,5],[0,1,0,0,-5],[1,0,0,0,5],[1,1,0,0,-5]];perimeter=orthogonalPerimeter;outlineConnect=0;targetShapes=umlLifeline;portConstraint=eastwest;newEdgeStyle={&quot;curved&quot;:0,&quot;rounded&quot;:0};" vertex="1" parent="1">
          <mxGeometry x="370" y="220" width="10" height="320" as="geometry" />
        </mxCell>
        <mxCell id="Wwknnj7imQhr6KvqIxDG-20" style="edgeStyle=orthogonalEdgeStyle;rounded=0;orthogonalLoop=1;jettySize=auto;html=1;curved=0;exitX=1.033;exitY=0.051;exitDx=0;exitDy=0;exitPerimeter=0;entryX=0.01;entryY=0.053;entryDx=0;entryDy=0;entryPerimeter=0;" edge="1" parent="1" source="Wwknnj7imQhr6KvqIxDG-19" target="Wwknnj7imQhr6KvqIxDG-12">
          <mxGeometry relative="1" as="geometry" />
        </mxCell>
        <mxCell id="Wwknnj7imQhr6KvqIxDG-21" value="4: sendInfo(email, password, profileType)" style="edgeLabel;html=1;align=center;verticalAlign=middle;resizable=0;points=[];" vertex="1" connectable="0" parent="Wwknnj7imQhr6KvqIxDG-20">
          <mxGeometry x="0.0403" relative="1" as="geometry">
            <mxPoint x="-12" y="-5" as="offset" />
          </mxGeometry>
        </mxCell>
        <mxCell id="Wwknnj7imQhr6KvqIxDG-22" value="" style="endArrow=none;dashed=1;html=1;rounded=0;entryX=1.006;entryY=0.517;entryDx=0;entryDy=0;entryPerimeter=0;exitX=0.002;exitY=0.508;exitDx=0;exitDy=0;exitPerimeter=0;" edge="1" parent="1" source="Wwknnj7imQhr6KvqIxDG-17" target="Wwknnj7imQhr6KvqIxDG-17">
          <mxGeometry width="50" height="50" relative="1" as="geometry">
            <mxPoint x="60" y="380" as="sourcePoint" />
            <mxPoint x="110" y="330" as="targetPoint" />
          </mxGeometry>
        </mxCell>
        <mxCell id="Wwknnj7imQhr6KvqIxDG-28" style="edgeStyle=orthogonalEdgeStyle;rounded=0;orthogonalLoop=1;jettySize=auto;html=1;curved=0;" edge="1" parent="1" source="Wwknnj7imQhr6KvqIxDG-12" target="Wwknnj7imQhr6KvqIxDG-19">
          <mxGeometry relative="1" as="geometry" />
        </mxCell>
        <mxCell id="Wwknnj7imQhr6KvqIxDG-32" value="6: validRegistration" style="edgeLabel;html=1;align=center;verticalAlign=middle;resizable=0;points=[];" vertex="1" connectable="0" parent="Wwknnj7imQhr6KvqIxDG-28">
          <mxGeometry x="0.1177" y="-2" relative="1" as="geometry">
            <mxPoint as="offset" />
          </mxGeometry>
        </mxCell>
        <mxCell id="Wwknnj7imQhr6KvqIxDG-30" style="edgeStyle=orthogonalEdgeStyle;rounded=0;orthogonalLoop=1;jettySize=auto;html=1;curved=0;entryX=1.248;entryY=0.657;entryDx=0;entryDy=0;entryPerimeter=0;exitX=-0.062;exitY=0.551;exitDx=0;exitDy=0;exitPerimeter=0;" edge="1" parent="1">
          <mxGeometry relative="1" as="geometry">
            <mxPoint x="370" y="490" as="sourcePoint" />
            <mxPoint x="88" y="490" as="targetPoint" />
          </mxGeometry>
        </mxCell>
        <mxCell id="Wwknnj7imQhr6KvqIxDG-36" value="9: show(registrationError)" style="edgeLabel;html=1;align=center;verticalAlign=middle;resizable=0;points=[];" vertex="1" connectable="0" parent="Wwknnj7imQhr6KvqIxDG-30">
          <mxGeometry x="0.4228" y="-3" relative="1" as="geometry">
            <mxPoint x="50" as="offset" />
          </mxGeometry>
        </mxCell>
        <mxCell id="Wwknnj7imQhr6KvqIxDG-31" style="edgeStyle=orthogonalEdgeStyle;rounded=0;orthogonalLoop=1;jettySize=auto;html=1;curved=0;" edge="1" parent="1">
          <mxGeometry relative="1" as="geometry">
            <mxPoint x="615" y="480" as="sourcePoint" />
            <mxPoint x="380" y="480" as="targetPoint" />
          </mxGeometry>
        </mxCell>
        <mxCell id="Wwknnj7imQhr6KvqIxDG-35" value="8: invalidRegistration" style="edgeLabel;html=1;align=center;verticalAlign=middle;resizable=0;points=[];" vertex="1" connectable="0" parent="Wwknnj7imQhr6KvqIxDG-31">
          <mxGeometry x="0.219" y="-1" relative="1" as="geometry">
            <mxPoint x="18" as="offset" />
          </mxGeometry>
        </mxCell>
        <mxCell id="Wwknnj7imQhr6KvqIxDG-34" style="edgeStyle=orthogonalEdgeStyle;rounded=0;orthogonalLoop=1;jettySize=auto;html=1;curved=0;entryX=1.248;entryY=0.657;entryDx=0;entryDy=0;entryPerimeter=0;exitX=-0.062;exitY=0.551;exitDx=0;exitDy=0;exitPerimeter=0;" edge="1" parent="1">
          <mxGeometry relative="1" as="geometry">
            <mxPoint x="370" y="530" as="sourcePoint" />
            <mxPoint x="88" y="530" as="targetPoint" />
          </mxGeometry>
        </mxCell>
        <mxCell id="Wwknnj7imQhr6KvqIxDG-37" value="10: show(registrationForm)" style="edgeLabel;html=1;align=center;verticalAlign=middle;resizable=0;points=[];" vertex="1" connectable="0" parent="Wwknnj7imQhr6KvqIxDG-34">
          <mxGeometry x="0.2405" y="1" relative="1" as="geometry">
            <mxPoint x="25" as="offset" />
          </mxGeometry>
        </mxCell>
        <mxCell id="Wwknnj7imQhr6KvqIxDG-38" value="User" style="text;html=1;align=center;verticalAlign=middle;resizable=0;points=[];autosize=1;strokeColor=none;fillColor=none;" vertex="1" parent="1">
          <mxGeometry x="55" y="30" width="50" height="30" as="geometry" />
        </mxCell>
        <mxCell id="Wwknnj7imQhr6KvqIxDG-39" value="" style="html=1;points=[[0,0,0,0,5],[0,0.5,0,0,0],[0,1,0,0,-5],[1,0,0,0,5],[1,0.5,0,0,0],[1,1,0,0,-5]];perimeter=orthogonalPerimeter;outlineConnect=0;targetShapes=umlLifeline;portConstraint=eastwest;newEdgeStyle={&quot;curved&quot;:0,&quot;rounded&quot;:0};" vertex="1" parent="1">
          <mxGeometry x="75" y="520" width="10" height="40" as="geometry" />
        </mxCell>
        <mxCell id="Wwknnj7imQhr6KvqIxDG-40" value="UC Fede1 Sign into platform" style="text;html=1;align=center;verticalAlign=middle;resizable=0;points=[];autosize=1;strokeColor=none;fillColor=none;" vertex="1" parent="1">
          <mxGeometry x="15" y="10" width="170" height="30" as="geometry" />
        </mxCell>
        <mxCell id="Wwknnj7imQhr6KvqIxDG-41" value="UC Fede2 Create tournament" style="text;html=1;align=center;verticalAlign=middle;resizable=0;points=[];autosize=1;strokeColor=none;fillColor=none;" vertex="1" parent="1">
          <mxGeometry y="600" width="180" height="30" as="geometry" />
        </mxCell>
        <mxCell id="Wwknnj7imQhr6KvqIxDG-43" value="" style="shape=umlLifeline;perimeter=lifelinePerimeter;whiteSpace=wrap;html=1;container=1;dropTarget=0;collapsible=0;recursiveResize=0;outlineConnect=0;portConstraint=eastwest;newEdgeStyle={&quot;curved&quot;:0,&quot;rounded&quot;:0};participant=umlActor;" vertex="1" parent="1">
          <mxGeometry x="70" y="660" width="20" height="780" as="geometry" />
        </mxCell>
        <mxCell id="Wwknnj7imQhr6KvqIxDG-70" value="" style="html=1;points=[[0,0,0,0,5],[0,1,0,0,-5],[1,0,0,0,5],[1,1,0,0,-5]];perimeter=orthogonalPerimeter;outlineConnect=0;targetShapes=umlLifeline;portConstraint=eastwest;newEdgeStyle={&quot;curved&quot;:0,&quot;rounded&quot;:0};" vertex="1" parent="Wwknnj7imQhr6KvqIxDG-43">
          <mxGeometry x="5" y="80" width="10" height="690" as="geometry" />
        </mxCell>
        <mxCell id="Wwknnj7imQhr6KvqIxDG-44" value="CodeKataBattle" style="shape=umlLifeline;perimeter=lifelinePerimeter;whiteSpace=wrap;html=1;container=1;dropTarget=0;collapsible=0;recursiveResize=0;outlineConnect=0;portConstraint=eastwest;newEdgeStyle={&quot;curved&quot;:0,&quot;rounded&quot;:0};" vertex="1" parent="1">
          <mxGeometry x="325" y="660" width="100" height="780" as="geometry" />
        </mxCell>
        <mxCell id="Wwknnj7imQhr6KvqIxDG-71" value="" style="html=1;points=[[0,0,0,0,5],[0,1,0,0,-5],[1,0,0,0,5],[1,1,0,0,-5]];perimeter=orthogonalPerimeter;outlineConnect=0;targetShapes=umlLifeline;portConstraint=eastwest;newEdgeStyle={&quot;curved&quot;:0,&quot;rounded&quot;:0};" vertex="1" parent="Wwknnj7imQhr6KvqIxDG-44">
          <mxGeometry x="45" y="80" width="10" height="690" as="geometry" />
        </mxCell>
        <mxCell id="Wwknnj7imQhr6KvqIxDG-46" value="System" style="shape=umlLifeline;perimeter=lifelinePerimeter;whiteSpace=wrap;html=1;container=1;dropTarget=0;collapsible=0;recursiveResize=0;outlineConnect=0;portConstraint=eastwest;newEdgeStyle={&quot;curved&quot;:0,&quot;rounded&quot;:0};" vertex="1" parent="1">
          <mxGeometry x="620" y="660" width="100" height="780" as="geometry" />
        </mxCell>
        <mxCell id="Wwknnj7imQhr6KvqIxDG-61" value="" style="html=1;points=[[0,0,0,0,5],[0,1,0,0,-5],[1,0,0,0,5],[1,1,0,0,-5]];perimeter=orthogonalPerimeter;outlineConnect=0;targetShapes=umlLifeline;portConstraint=eastwest;newEdgeStyle={&quot;curved&quot;:0,&quot;rounded&quot;:0};" vertex="1" parent="Wwknnj7imQhr6KvqIxDG-46">
          <mxGeometry x="55" y="260" width="10" height="40" as="geometry" />
        </mxCell>
        <mxCell id="Wwknnj7imQhr6KvqIxDG-62" value="5: checkTournamentInfo(TournamentInfo)" style="html=1;align=left;spacingLeft=2;endArrow=block;rounded=0;edgeStyle=orthogonalEdgeStyle;curved=0;rounded=0;" edge="1" target="Wwknnj7imQhr6KvqIxDG-61" parent="Wwknnj7imQhr6KvqIxDG-46">
          <mxGeometry relative="1" as="geometry">
            <mxPoint x="60" y="240" as="sourcePoint" />
            <Array as="points">
              <mxPoint x="85" y="270" />
            </Array>
          </mxGeometry>
        </mxCell>
        <mxCell id="Wwknnj7imQhr6KvqIxDG-72" value="" style="html=1;points=[[0,0,0,0,5],[0,1,0,0,-5],[1,0,0,0,5],[1,1,0,0,-5]];perimeter=orthogonalPerimeter;outlineConnect=0;targetShapes=umlLifeline;portConstraint=eastwest;newEdgeStyle={&quot;curved&quot;:0,&quot;rounded&quot;:0};" vertex="1" parent="Wwknnj7imQhr6KvqIxDG-46">
          <mxGeometry x="45" y="220" width="10" height="430" as="geometry" />
        </mxCell>
        <mxCell id="Wwknnj7imQhr6KvqIxDG-48" style="edgeStyle=orthogonalEdgeStyle;rounded=0;orthogonalLoop=1;jettySize=auto;html=1;curved=0;exitX=1;exitY=0;exitDx=0;exitDy=5;exitPerimeter=0;entryX=0;entryY=0;entryDx=0;entryDy=5;entryPerimeter=0;" edge="1" parent="1">
          <mxGeometry relative="1" as="geometry">
            <mxPoint x="85" y="750" as="sourcePoint" />
            <mxPoint x="370" y="750" as="targetPoint" />
          </mxGeometry>
        </mxCell>
        <mxCell id="Wwknnj7imQhr6KvqIxDG-49" value="1: createTournament" style="edgeLabel;html=1;align=center;verticalAlign=middle;resizable=0;points=[];" vertex="1" connectable="0" parent="Wwknnj7imQhr6KvqIxDG-48">
          <mxGeometry x="-0.1916" relative="1" as="geometry">
            <mxPoint x="20" y="-5" as="offset" />
          </mxGeometry>
        </mxCell>
        <mxCell id="Wwknnj7imQhr6KvqIxDG-50" style="edgeStyle=orthogonalEdgeStyle;rounded=0;orthogonalLoop=1;jettySize=auto;html=1;curved=0;entryX=1.2;entryY=0.71;entryDx=0;entryDy=0;entryPerimeter=0;exitX=-0.062;exitY=0.551;exitDx=0;exitDy=0;exitPerimeter=0;" edge="1" parent="1">
          <mxGeometry relative="1" as="geometry">
            <mxPoint x="367" y="800" as="sourcePoint" />
            <mxPoint x="85" y="801" as="targetPoint" />
          </mxGeometry>
        </mxCell>
        <mxCell id="Wwknnj7imQhr6KvqIxDG-51" value="2: show(tournamentCreationForm)" style="edgeLabel;html=1;align=center;verticalAlign=middle;resizable=0;points=[];" vertex="1" connectable="0" parent="Wwknnj7imQhr6KvqIxDG-50">
          <mxGeometry x="0.1431" y="-2" relative="1" as="geometry">
            <mxPoint x="24" as="offset" />
          </mxGeometry>
        </mxCell>
        <mxCell id="Wwknnj7imQhr6KvqIxDG-52" style="edgeStyle=orthogonalEdgeStyle;rounded=0;orthogonalLoop=1;jettySize=auto;html=1;curved=0;exitX=1;exitY=0;exitDx=0;exitDy=5;exitPerimeter=0;entryX=0;entryY=0;entryDx=0;entryDy=5;entryPerimeter=0;" edge="1" parent="1">
          <mxGeometry relative="1" as="geometry">
            <mxPoint x="85" y="870" as="sourcePoint" />
            <mxPoint x="370" y="870" as="targetPoint" />
          </mxGeometry>
        </mxCell>
        <mxCell id="Wwknnj7imQhr6KvqIxDG-53" value="3: sendInfo(TournamentInfo)" style="edgeLabel;html=1;align=center;verticalAlign=middle;resizable=0;points=[];" vertex="1" connectable="0" parent="Wwknnj7imQhr6KvqIxDG-52">
          <mxGeometry x="-0.1916" relative="1" as="geometry">
            <mxPoint x="20" y="-5" as="offset" />
          </mxGeometry>
        </mxCell>
        <mxCell id="Wwknnj7imQhr6KvqIxDG-56" style="edgeStyle=orthogonalEdgeStyle;rounded=0;orthogonalLoop=1;jettySize=auto;html=1;curved=0;exitX=1.033;exitY=0.051;exitDx=0;exitDy=0;exitPerimeter=0;entryX=0.444;entryY=0.297;entryDx=0;entryDy=0;entryPerimeter=0;" edge="1" parent="1" target="Wwknnj7imQhr6KvqIxDG-46">
          <mxGeometry relative="1" as="geometry">
            <mxPoint x="380" y="890" as="sourcePoint" />
            <mxPoint x="615" y="891" as="targetPoint" />
          </mxGeometry>
        </mxCell>
        <mxCell id="Wwknnj7imQhr6KvqIxDG-57" value="4: createTournament(TournamentInfo)" style="edgeLabel;html=1;align=center;verticalAlign=middle;resizable=0;points=[];" vertex="1" connectable="0" parent="Wwknnj7imQhr6KvqIxDG-56">
          <mxGeometry x="0.0403" relative="1" as="geometry">
            <mxPoint x="-12" y="-5" as="offset" />
          </mxGeometry>
        </mxCell>
        <mxCell id="Wwknnj7imQhr6KvqIxDG-58" value="&lt;b&gt;alt&lt;/b&gt;&amp;nbsp;validTournamentInfo == false" style="shape=umlFrame;whiteSpace=wrap;html=1;pointerEvents=0;width=200;height=30;" vertex="1" parent="1">
          <mxGeometry x="55" y="960" width="1165" height="490" as="geometry" />
        </mxCell>
        <mxCell id="Wwknnj7imQhr6KvqIxDG-63" style="edgeStyle=orthogonalEdgeStyle;rounded=0;orthogonalLoop=1;jettySize=auto;html=1;curved=0;exitX=0.468;exitY=0.449;exitDx=0;exitDy=0;exitPerimeter=0;" edge="1" parent="1" source="Wwknnj7imQhr6KvqIxDG-46">
          <mxGeometry relative="1" as="geometry">
            <mxPoint x="615" y="1010" as="sourcePoint" />
            <mxPoint x="380" y="1010" as="targetPoint" />
          </mxGeometry>
        </mxCell>
        <mxCell id="Wwknnj7imQhr6KvqIxDG-64" value="6: invalidInfo" style="edgeLabel;html=1;align=center;verticalAlign=middle;resizable=0;points=[];" vertex="1" connectable="0" parent="Wwknnj7imQhr6KvqIxDG-63">
          <mxGeometry x="0.219" y="-1" relative="1" as="geometry">
            <mxPoint x="18" as="offset" />
          </mxGeometry>
        </mxCell>
        <mxCell id="Wwknnj7imQhr6KvqIxDG-67" style="edgeStyle=orthogonalEdgeStyle;rounded=0;orthogonalLoop=1;jettySize=auto;html=1;curved=0;exitX=1;exitY=0;exitDx=0;exitDy=5;exitPerimeter=0;entryX=0;entryY=0;entryDx=0;entryDy=5;entryPerimeter=0;endArrow=none;endFill=0;startArrow=classic;startFill=1;" edge="1" parent="1">
          <mxGeometry relative="1" as="geometry">
            <mxPoint x="85" y="1040" as="sourcePoint" />
            <mxPoint x="370" y="1040" as="targetPoint" />
          </mxGeometry>
        </mxCell>
        <mxCell id="Wwknnj7imQhr6KvqIxDG-68" value="7: show(TournamentCreationForm, missingInfo)" style="edgeLabel;html=1;align=center;verticalAlign=middle;resizable=0;points=[];" vertex="1" connectable="0" parent="Wwknnj7imQhr6KvqIxDG-67">
          <mxGeometry x="-0.1916" relative="1" as="geometry">
            <mxPoint x="20" y="-5" as="offset" />
          </mxGeometry>
        </mxCell>
        <mxCell id="Wwknnj7imQhr6KvqIxDG-69" value="" style="endArrow=none;dashed=1;html=1;rounded=0;entryX=1.006;entryY=0.517;entryDx=0;entryDy=0;entryPerimeter=0;exitX=0.002;exitY=0.508;exitDx=0;exitDy=0;exitPerimeter=0;" edge="1" parent="1">
          <mxGeometry width="50" height="50" relative="1" as="geometry">
            <mxPoint x="50" y="1080" as="sourcePoint" />
            <mxPoint x="653" y="1082" as="targetPoint" />
          </mxGeometry>
        </mxCell>
        <mxCell id="Wwknnj7imQhr6KvqIxDG-73" style="edgeStyle=orthogonalEdgeStyle;rounded=0;orthogonalLoop=1;jettySize=auto;html=1;curved=0;exitX=0.4;exitY=0.603;exitDx=0;exitDy=0;exitPerimeter=0;" edge="1" parent="1" source="Wwknnj7imQhr6KvqIxDG-46">
          <mxGeometry relative="1" as="geometry">
            <mxPoint x="615" y="1130" as="sourcePoint" />
            <mxPoint x="380" y="1130" as="targetPoint" />
          </mxGeometry>
        </mxCell>
        <mxCell id="Wwknnj7imQhr6KvqIxDG-74" value="6: invalidInfo" style="edgeLabel;html=1;align=center;verticalAlign=middle;resizable=0;points=[];" vertex="1" connectable="0" parent="Wwknnj7imQhr6KvqIxDG-73">
          <mxGeometry x="0.219" y="-1" relative="1" as="geometry">
            <mxPoint x="18" as="offset" />
          </mxGeometry>
        </mxCell>
        <mxCell id="Wwknnj7imQhr6KvqIxDG-77" style="edgeStyle=orthogonalEdgeStyle;rounded=0;orthogonalLoop=1;jettySize=auto;html=1;curved=0;exitX=1;exitY=0;exitDx=0;exitDy=5;exitPerimeter=0;entryX=0;entryY=0;entryDx=0;entryDy=5;entryPerimeter=0;endArrow=none;endFill=0;startArrow=classic;startFill=1;" edge="1" parent="1">
          <mxGeometry relative="1" as="geometry">
            <mxPoint x="85" y="1150" as="sourcePoint" />
            <mxPoint x="370" y="1150" as="targetPoint" />
          </mxGeometry>
        </mxCell>
        <mxCell id="Wwknnj7imQhr6KvqIxDG-78" value="7: show(InviteEducatorsForm)" style="edgeLabel;html=1;align=center;verticalAlign=middle;resizable=0;points=[];" vertex="1" connectable="0" parent="Wwknnj7imQhr6KvqIxDG-77">
          <mxGeometry x="-0.1916" relative="1" as="geometry">
            <mxPoint x="20" y="-5" as="offset" />
          </mxGeometry>
        </mxCell>
        <mxCell id="Wwknnj7imQhr6KvqIxDG-79" style="edgeStyle=orthogonalEdgeStyle;rounded=0;orthogonalLoop=1;jettySize=auto;html=1;curved=0;exitX=1;exitY=0;exitDx=0;exitDy=5;exitPerimeter=0;entryX=0;entryY=0;entryDx=0;entryDy=5;entryPerimeter=0;" edge="1" parent="1">
          <mxGeometry relative="1" as="geometry">
            <mxPoint x="85" y="1210" as="sourcePoint" />
            <mxPoint x="370" y="1210" as="targetPoint" />
          </mxGeometry>
        </mxCell>
        <mxCell id="Wwknnj7imQhr6KvqIxDG-80" value="3: sendInfo(UserInviteInfo)" style="edgeLabel;html=1;align=center;verticalAlign=middle;resizable=0;points=[];" vertex="1" connectable="0" parent="Wwknnj7imQhr6KvqIxDG-79">
          <mxGeometry x="-0.1916" relative="1" as="geometry">
            <mxPoint x="20" y="-5" as="offset" />
          </mxGeometry>
        </mxCell>
        <mxCell id="Wwknnj7imQhr6KvqIxDG-81" style="edgeStyle=orthogonalEdgeStyle;rounded=0;orthogonalLoop=1;jettySize=auto;html=1;curved=0;exitX=1;exitY=0;exitDx=0;exitDy=5;exitPerimeter=0;entryX=0;entryY=0;entryDx=0;entryDy=5;entryPerimeter=0;" edge="1" parent="1">
          <mxGeometry relative="1" as="geometry">
            <mxPoint x="380" y="1230" as="sourcePoint" />
            <mxPoint x="665" y="1230" as="targetPoint" />
          </mxGeometry>
        </mxCell>
        <mxCell id="Wwknnj7imQhr6KvqIxDG-82" value="3: sendInfo(UserInviteInfo)" style="edgeLabel;html=1;align=center;verticalAlign=middle;resizable=0;points=[];" vertex="1" connectable="0" parent="Wwknnj7imQhr6KvqIxDG-81">
          <mxGeometry x="-0.1916" relative="1" as="geometry">
            <mxPoint x="20" y="-5" as="offset" />
          </mxGeometry>
        </mxCell>
        <mxCell id="Wwknnj7imQhr6KvqIxDG-83" style="edgeStyle=orthogonalEdgeStyle;rounded=0;orthogonalLoop=1;jettySize=auto;html=1;curved=0;exitX=0.471;exitY=0.808;exitDx=0;exitDy=0;exitPerimeter=0;" edge="1" parent="1" source="Wwknnj7imQhr6KvqIxDG-46">
          <mxGeometry relative="1" as="geometry">
            <mxPoint x="660" y="1290" as="sourcePoint" />
            <mxPoint x="380" y="1290" as="targetPoint" />
          </mxGeometry>
        </mxCell>
        <mxCell id="Wwknnj7imQhr6KvqIxDG-84" value="InviteUsers" style="edgeLabel;html=1;align=center;verticalAlign=middle;resizable=0;points=[];" vertex="1" connectable="0" parent="Wwknnj7imQhr6KvqIxDG-83">
          <mxGeometry x="0.219" y="-1" relative="1" as="geometry">
            <mxPoint x="18" as="offset" />
          </mxGeometry>
        </mxCell>
        <mxCell id="Wwknnj7imQhr6KvqIxDG-85" value="" style="shape=umlLifeline;perimeter=lifelinePerimeter;whiteSpace=wrap;html=1;container=1;dropTarget=0;collapsible=0;recursiveResize=0;outlineConnect=0;portConstraint=eastwest;newEdgeStyle={&quot;curved&quot;:0,&quot;rounded&quot;:0};participant=umlActor;" vertex="1" parent="1">
          <mxGeometry x="960" y="650" width="20" height="780" as="geometry" />
        </mxCell>
        <mxCell id="Wwknnj7imQhr6KvqIxDG-86" value="" style="html=1;points=[[0,0,0,0,5],[0,1,0,0,-5],[1,0,0,0,5],[1,1,0,0,-5]];perimeter=orthogonalPerimeter;outlineConnect=0;targetShapes=umlLifeline;portConstraint=eastwest;newEdgeStyle={&quot;curved&quot;:0,&quot;rounded&quot;:0};" vertex="1" parent="Wwknnj7imQhr6KvqIxDG-85">
          <mxGeometry x="5" y="690" width="10" height="30" as="geometry" />
        </mxCell>
        <mxCell id="Wwknnj7imQhr6KvqIxDG-87" style="edgeStyle=orthogonalEdgeStyle;rounded=0;orthogonalLoop=1;jettySize=auto;html=1;curved=0;exitX=1;exitY=0;exitDx=0;exitDy=5;exitPerimeter=0;" edge="1" parent="1" target="Wwknnj7imQhr6KvqIxDG-86">
          <mxGeometry relative="1" as="geometry">
            <mxPoint x="380" y="1350" as="sourcePoint" />
            <mxPoint x="665" y="1350" as="targetPoint" />
            <Array as="points">
              <mxPoint x="380" y="1351" />
            </Array>
          </mxGeometry>
        </mxCell>
        <mxCell id="Wwknnj7imQhr6KvqIxDG-88" value="sendInvite" style="edgeLabel;html=1;align=center;verticalAlign=middle;resizable=0;points=[];" vertex="1" connectable="0" parent="Wwknnj7imQhr6KvqIxDG-87">
          <mxGeometry x="-0.1916" relative="1" as="geometry">
            <mxPoint x="20" y="-5" as="offset" />
          </mxGeometry>
        </mxCell>
        <mxCell id="Wwknnj7imQhr6KvqIxDG-89" style="edgeStyle=orthogonalEdgeStyle;rounded=0;orthogonalLoop=1;jettySize=auto;html=1;curved=0;exitX=1;exitY=0;exitDx=0;exitDy=5;exitPerimeter=0;entryX=0;entryY=0;entryDx=0;entryDy=5;entryPerimeter=0;endArrow=none;endFill=0;startArrow=classic;startFill=1;" edge="1" parent="1">
          <mxGeometry relative="1" as="geometry">
            <mxPoint x="85" y="1380" as="sourcePoint" />
            <mxPoint x="370" y="1380" as="targetPoint" />
          </mxGeometry>
        </mxCell>
        <mxCell id="Wwknnj7imQhr6KvqIxDG-90" value="7: show(Success)" style="edgeLabel;html=1;align=center;verticalAlign=middle;resizable=0;points=[];" vertex="1" connectable="0" parent="Wwknnj7imQhr6KvqIxDG-89">
          <mxGeometry x="-0.1916" relative="1" as="geometry">
            <mxPoint x="20" y="-5" as="offset" />
          </mxGeometry>
        </mxCell>
        <mxCell id="Wwknnj7imQhr6KvqIxDG-91" style="edgeStyle=orthogonalEdgeStyle;rounded=0;orthogonalLoop=1;jettySize=auto;html=1;curved=0;exitX=1;exitY=0;exitDx=0;exitDy=5;exitPerimeter=0;entryX=0;entryY=0;entryDx=0;entryDy=5;entryPerimeter=0;endArrow=none;endFill=0;startArrow=classic;startFill=1;" edge="1" parent="1">
          <mxGeometry relative="1" as="geometry">
            <mxPoint x="85" y="1410" as="sourcePoint" />
            <mxPoint x="370" y="1410" as="targetPoint" />
          </mxGeometry>
        </mxCell>
        <mxCell id="Wwknnj7imQhr6KvqIxDG-92" value="7: show(TournamentPage)" style="edgeLabel;html=1;align=center;verticalAlign=middle;resizable=0;points=[];" vertex="1" connectable="0" parent="Wwknnj7imQhr6KvqIxDG-91">
          <mxGeometry x="-0.1916" relative="1" as="geometry">
            <mxPoint x="20" y="-5" as="offset" />
          </mxGeometry>
        </mxCell>
        <mxCell id="Wwknnj7imQhr6KvqIxDG-93" value="" style="shape=umlLifeline;perimeter=lifelinePerimeter;whiteSpace=wrap;html=1;container=1;dropTarget=0;collapsible=0;recursiveResize=0;outlineConnect=0;portConstraint=eastwest;newEdgeStyle={&quot;curved&quot;:0,&quot;rounded&quot;:0};participant=umlActor;" vertex="1" parent="1">
          <mxGeometry x="1160" y="650" width="20" height="780" as="geometry" />
        </mxCell>
        <mxCell id="Wwknnj7imQhr6KvqIxDG-94" value="" style="html=1;points=[[0,0,0,0,5],[0,1,0,0,-5],[1,0,0,0,5],[1,1,0,0,-5]];perimeter=orthogonalPerimeter;outlineConnect=0;targetShapes=umlLifeline;portConstraint=eastwest;newEdgeStyle={&quot;curved&quot;:0,&quot;rounded&quot;:0};" vertex="1" parent="Wwknnj7imQhr6KvqIxDG-93">
          <mxGeometry x="5" y="760" width="10" height="20" as="geometry" />
        </mxCell>
        <mxCell id="Wwknnj7imQhr6KvqIxDG-95" style="edgeStyle=orthogonalEdgeStyle;rounded=0;orthogonalLoop=1;jettySize=auto;html=1;curved=0;exitX=1;exitY=1;exitDx=0;exitDy=-5;exitPerimeter=0;entryX=0;entryY=1;entryDx=0;entryDy=-5;entryPerimeter=0;" edge="1" parent="1" source="Wwknnj7imQhr6KvqIxDG-71" target="Wwknnj7imQhr6KvqIxDG-94">
          <mxGeometry relative="1" as="geometry" />
        </mxCell>
        <mxCell id="Wwknnj7imQhr6KvqIxDG-96" value="NotifyStudents" style="edgeLabel;html=1;align=center;verticalAlign=middle;resizable=0;points=[];" vertex="1" connectable="0" parent="Wwknnj7imQhr6KvqIxDG-95">
          <mxGeometry x="-0.1374" y="6" relative="1" as="geometry">
            <mxPoint as="offset" />
          </mxGeometry>
        </mxCell>
        <mxCell id="Wwknnj7imQhr6KvqIxDG-97" value="Educator&lt;br&gt;" style="text;html=1;align=center;verticalAlign=middle;resizable=0;points=[];autosize=1;strokeColor=none;fillColor=none;" vertex="1" parent="1">
          <mxGeometry x="45" y="630" width="70" height="30" as="geometry" />
        </mxCell>
        <mxCell id="Wwknnj7imQhr6KvqIxDG-98" value="Educator" style="text;html=1;align=center;verticalAlign=middle;resizable=0;points=[];autosize=1;strokeColor=none;fillColor=none;" vertex="1" parent="1">
          <mxGeometry x="935" y="610" width="70" height="30" as="geometry" />
        </mxCell>
        <mxCell id="Wwknnj7imQhr6KvqIxDG-99" value="Student" style="text;html=1;align=center;verticalAlign=middle;resizable=0;points=[];autosize=1;strokeColor=none;fillColor=none;" vertex="1" parent="1">
          <mxGeometry x="1140" y="610" width="60" height="30" as="geometry" />
        </mxCell>
      </root>
    </mxGraphModel>
  </diagram>
</mxfile>
